<svg id="Layer_1" data-name="Layer 1" xmlns="http://www.w3.org/2000/svg" viewBox="0 0 973.64 113.2"><defs><style>.cls-1{fill:#fff;}.cls-2,.cls-3{fill:none;}.cls-3{stroke:#000;stroke-linecap:round;stroke-linejoin:round;stroke-width:0;}</style></defs><title>isithappening drawing board 2</title><rect class="cls-1" x="143.33" width="118.48" height="113.39"/><rect class="cls-1" x="280.92" y="-0.17" width="692.72" height="113.37"/><rect class="cls-1" width="124.23" height="113.39"/><path class="cls-2" d="M90.63,48.63q-2.53-.8-5.12-1.5a29.17,29.17,0,0,1-4.64-1.65,11,11,0,0,1-3.32-2.26,4.55,4.55,0,0,1-1.27-3.31,5.54,5.54,0,0,1,2.53-4.71,11,11,0,0,1,6.54-1.8,18.76,18.76,0,0,1,6.54,1.25,25.9,25.9,0,0,1,6.75,3.86l8.23-15.33a56.29,56.29,0,0,0-12.34-4.56,52.63,52.63,0,0,0-12.34-1.55,34.26,34.26,0,0,0-11.45,1.8,24.7,24.7,0,0,0-8.65,5.06,22.55,22.55,0,0,0-5.49,7.82,25.58,25.58,0,0,0-2,10.17,20.51,20.51,0,0,0,1.85,9.27,18,18,0,0,0,4.85,6.06,25,25,0,0,0,6.86,3.86q3.85,1.45,7.86,2.66,3.38,1.1,5.75,2a17.21,17.21,0,0,1,3.85,2A6.36,6.36,0,0,1,85.93,78q-2.48,2.21-7.54,2.2a23,23,0,0,1-9-1.9,36.1,36.1,0,0,1-9.18-5.81L51.38,88.32a49.65,49.65,0,0,0,28,8.52,42.4,42.4,0,0,0,13-1.85,28.14,28.14,0,0,0,9.71-5.21,22,22,0,0,0,6-8.07,26,26,0,0,0,2.06-10.52q0-8.62-4.7-14T90.63,48.63Z"/><rect class="cls-2" x="20.05" y="19.16" width="20.68" height="75.57"/><path d="M0,0V113.39H124.23V0ZM40.73,94.73H20.05V19.16H40.73Zm67.36-13a22,22,0,0,1-6,8.07A28.14,28.14,0,0,1,92.37,95a42.4,42.4,0,0,1-13,1.85,49.65,49.65,0,0,1-28-8.52l8.86-15.84a36.1,36.1,0,0,0,9.18,5.81,23,23,0,0,0,9,1.9q5.06,0,7.54-2.2a6.58,6.58,0,0,0,2.48-5,5.86,5.86,0,0,0-2.74-5.26,17.21,17.21,0,0,0-3.85-2q-2.37-.9-5.75-2-4-1.2-7.86-2.66a25,25,0,0,1-6.86-3.86,18,18,0,0,1-4.85-6.06,20.51,20.51,0,0,1-1.85-9.27,25.58,25.58,0,0,1,2-10.17,22.55,22.55,0,0,1,5.49-7.82,24.7,24.7,0,0,1,8.65-5.06,34.26,34.26,0,0,1,11.45-1.8,52.63,52.63,0,0,1,12.34,1.55,56.29,56.29,0,0,1,12.34,4.56L98.65,38.51a25.9,25.9,0,0,0-6.75-3.86,18.76,18.76,0,0,0-6.54-1.25,11,11,0,0,0-6.54,1.8,5.54,5.54,0,0,0-2.53,4.71,4.55,4.55,0,0,0,1.27,3.31,11,11,0,0,0,3.32,2.26,29.17,29.17,0,0,0,4.64,1.65q2.58.7,5.12,1.5,10.13,3.21,14.82,8.57t4.7,14A26,26,0,0,1,108.09,81.7Z"/><path class="cls-2" d="M602.07,65.6h21.07v-.19H602.07Z"/><path class="cls-2" d="M602.12,37.19h22.25v-.11H602.12Z"/><path class="cls-2" d="M633.63,94.18h21.52v-.27H633.63Z"/><path class="cls-2" d="M424.06,86.43H396.12L393,94H370.22l-.1.27H393l3.07-7.59h27.94L427,94.32h23l-.1-.27H427Z"/><path class="cls-2" d="M321.24,64.39v.19H346v-.19Z"/><path class="cls-2" d="M580.51,94.22h43.78v-.27H580.51Z"/><path class="cls-2" d="M299.82,94.23h21.42V94H299.82Z"/><path class="cls-2" d="M346,94.19h21.43v-.27H346Z"/><path class="cls-2" d="M655.15,52.63v.15l25.8,41.41h21v-.27h-21Z"/><path d="M550.19,36.55c-3.33-.84-6.72-.66-10.25-.56V52.82c2.34,0,4.51.07,6.67,0,6.92-.28,9.65-3.6,8.66-10.45A6.43,6.43,0,0,0,550.19,36.55Z"/><path d="M488.6,37.52a4.74,4.74,0,0,0-1.15-.6c-3.7-1.32-7.51-1-11.39-.95V52.89c3.63-.05,7.09.28,10.49-.65a6.34,6.34,0,0,0,4.94-5.93C491.83,43,491.71,39.74,488.6,37.52Z"/><path class="cls-1" d="M580.51,18.75h43.85V18.7H580.51Z"/><path class="cls-1" d="M624.29,75.54v-.22H602.07v.22Z"/><path class="cls-1" d="M623.14,46.78v-.14h-21v.14Z"/><path class="cls-1" d="M680.49,60.26v-.17l-26-41.43H633.63v.05h20.91Z"/><path class="cls-1" d="M680.49,18.75H701.9V18.7H680.49Z"/><path class="cls-1" d="M345.82,18.79h21.59v-.05H345.82Z"/><path class="cls-1" d="M345.82,46.6v-.13h-24.7v.13Z"/><path class="cls-1" d="M321.12,18.7h-21.3v.05h21.3Z"/><path d="M408.77,50.81l-.92,2.74-2.95,8.8-1.26,3.77-1,2.95h15.17l-7.6-22.6Z"/><line class="cls-3" x1="407.85" y1="53.55" x2="408.77" y2="50.81"/><line class="cls-3" x1="403.64" y1="66.13" x2="404.9" y2="62.36"/><path class="cls-2" d="M950,20.07a27.79,27.79,0,0,0-8.81-5.54,30.16,30.16,0,0,0-11.34-2.06,33.8,33.8,0,0,0-11.34,1.85,28,28,0,0,0-9.07,5.17,24,24,0,0,0-6,7.81,22.43,22.43,0,0,0-2.16,9.86h21a8.41,8.41,0,0,1,1.95-5.8,6.6,6.6,0,0,1,5.22-2.22,7.36,7.36,0,0,1,5.7,2.32A7.93,7.93,0,0,1,937.2,37a8.86,8.86,0,0,1-1.06,4.27,10,10,0,0,1-2.9,3.33,14.69,14.69,0,0,1-4.38,2.16,17.86,17.86,0,0,1-5.38.79,12.89,12.89,0,0,1-2-.16c-.71-.1-1.48-.23-2.32-.37V67.55h19.41V60q19.09-6.65,19.09-22.47a23.07,23.07,0,0,0-2-9.39A24.73,24.73,0,0,0,950,20.07Z"/><path class="cls-2" d="M580.51,18.75V94.22h43.78V75.32H602.07V65.6h21.07v-19h-21V37.19h22.25V18.7H580.51Z"/><path class="cls-2" d="M421.65,18.8H399L370.12,94h.1l-.1.27H393l3.07-7.59h27.94L427,94.32h23l-.1-.27h.1Z"/><path class="cls-2" d="M567.39,23.8a28,28,0,0,0-16.39-5c-10.37-.14-20.75,0-31.12,0h-1.52V94.06H539.8v-24c3.08,0,5.9.14,8.7,0a67,67,0,0,0,10.56-1.13c8.81-2,14.29-7.52,16.34-16.4a37.94,37.94,0,0,0,.65-12.76C575.35,33.29,572.81,27.71,567.39,23.8Z"/><path class="cls-2" d="M345.82,18.79V46.46h-24.7V18.7h-21.3V94.23h21.42V64.58H346V94.19h21.43V18.73H345.82Z"/><path class="cls-2" d="M498.33,21A29.13,29.13,0,0,0,488,18.83c-10.74-.1-21-.1-31.72-.13h-1.79V94H476v-24c3,0,5.67.09,8.34,0a70,70,0,0,0,9.09-.72c9.65-1.69,16-7.14,18.21-16.89a35.37,35.37,0,0,0,.07-16A20.8,20.8,0,0,0,498.33,21Z"/><path class="cls-2" d="M855.53,67.08h16.91a14.78,14.78,0,0,1-2,5.65,12.26,12.26,0,0,1-3.73,3.78,15.83,15.83,0,0,1-5.09,2.12,26,26,0,0,1-5.88.66,22.77,22.77,0,0,1-9-1.67,17.7,17.7,0,0,1-6.51-4.69,20,20,0,0,1-3.94-7.17,29.53,29.53,0,0,1-1.31-9,29.1,29.1,0,0,1,1.52-9.69,22.5,22.5,0,0,1,4.2-7.42,18.15,18.15,0,0,1,6.46-4.74,20.63,20.63,0,0,1,8.4-1.67A18.34,18.34,0,0,1,865.46,36q4.36,2.73,7.09,9l19.54-7.77q-5.46-10.8-14.81-15.95a44.37,44.37,0,0,0-21.75-5.15A48.86,48.86,0,0,0,838.2,19a38.91,38.91,0,0,0-13.29,8.18,35.67,35.67,0,0,0-8.51,12.67,43.17,43.17,0,0,0-3,16.3,42.75,42.75,0,0,0,3,16.4A37.1,37.1,0,0,0,825,85.3,38.18,38.18,0,0,0,838,93.53a46.65,46.65,0,0,0,16.86,2.93,49.86,49.86,0,0,0,12.81-1.61,42.59,42.59,0,0,0,11.19-4.69,34.56,34.56,0,0,0,8.88-7.67,36.24,36.24,0,0,0,6-10.55,37.71,37.71,0,0,0,2.1-9.18,104.75,104.75,0,0,0,.53-11H855.53Z"/><polygon class="cls-2" points="787.49 60.35 760.96 18.86 740.28 18.86 740.28 93.71 760.96 93.71 760.96 51.72 787.49 93.71 808.06 93.71 808.06 18.86 787.49 18.86 787.49 60.35"/><path class="cls-2" d="M680.49,18.75V60.08l-26-41.43H633.63V94.18h21.52V52.78l25.8,41.41h21V18.7H680.49Z"/><rect class="cls-2" x="710.85" y="18.86" width="20.68" height="74.84"/><path d="M280.92-.17V113.2H973.64V-.17Zm86.49,19v75.4H346V64.58H321.24V94.23H299.82V18.7h21.3V46.46h24.7V18.73h21.59ZM450,94.32H427l-2.93-7.64H396.12L393,94.27H370.12l.1-.27h-.1L399,18.8h22.61L450,94h-.1Zm61.59-41.88c-2.21,9.75-8.55,15.2-18.21,16.89a70,70,0,0,1-9.09.72c-2.67.11-5.34,0-8.34,0V94H454.44V18.7h1.79c10.74,0,21,0,31.72.13A29.13,29.13,0,0,1,498.33,21a20.8,20.8,0,0,1,13.32,15.48A35.37,35.37,0,0,1,511.59,52.43Zm63.82.06c-2,8.88-7.53,14.41-16.34,16.4A67,67,0,0,1,548.51,70c-2.8.18-5.63,0-8.7,0v24H518.36V18.8h1.52c10.37,0,20.75-.14,31.12,0a28,28,0,0,1,16.39,5c5.42,3.91,8,9.48,8.67,15.94A37.94,37.94,0,0,1,575.41,52.5Zm49-33.75V37.19H602.12v9.45h21v19H602.07v9.72h22.22v18.9H580.51V18.7h43.85Zm77.53,0V94.19h-21l-25.8-41.41v41.4H633.63V18.65h20.91l26,41.43V18.7H701.9Zm29.63,75H710.85V18.86h20.68Zm76.54,0H787.49L761,51.72v42H740.28V18.86H761l26.53,41.49V18.86h20.57Zm87.81-31a37.71,37.71,0,0,1-2.1,9.18,36.24,36.24,0,0,1-6,10.55,34.56,34.56,0,0,1-8.88,7.67,42.59,42.59,0,0,1-11.19,4.69,49.86,49.86,0,0,1-12.81,1.61A46.65,46.65,0,0,1,838,93.53,38.18,38.18,0,0,1,825,85.3a37.1,37.1,0,0,1-8.51-12.72,42.75,42.75,0,0,1-3-16.4,43.17,43.17,0,0,1,3-16.3,35.67,35.67,0,0,1,8.51-12.67A38.91,38.91,0,0,1,838.2,19a48.86,48.86,0,0,1,17.33-2.93,44.37,44.37,0,0,1,21.75,5.15q9.35,5.15,14.81,15.95L872.55,45q-2.73-6.26-7.09-9a18.34,18.34,0,0,0-9.93-2.72,20.63,20.63,0,0,0-8.4,1.67,18.15,18.15,0,0,0-6.46,4.74,22.5,22.5,0,0,0-4.2,7.42,29.1,29.1,0,0,0-1.52,9.69,29.53,29.53,0,0,0,1.31,9,20,20,0,0,0,3.94,7.17,17.7,17.7,0,0,0,6.51,4.69,22.77,22.77,0,0,0,9,1.67,26,26,0,0,0,5.88-.66,15.83,15.83,0,0,0,5.09-2.12,12.26,12.26,0,0,0,3.73-3.78,14.78,14.78,0,0,0,2-5.65H855.53V51.74H896.4A104.75,104.75,0,0,1,895.87,62.74Zm44.91,26.17a12.13,12.13,0,0,1-6.59,6.59,12.62,12.62,0,0,1-9.6,0A12.13,12.13,0,0,1,918,88.91a12.45,12.45,0,0,1,2.64-13.56,12.19,12.19,0,0,1,4-2.64,12.39,12.39,0,0,1,16.19,16.19Zm-2.21-29v7.6H919.16V47c.84.14,1.61.27,2.32.37a12.89,12.89,0,0,0,2,.16,17.86,17.86,0,0,0,5.38-.79,14.69,14.69,0,0,0,4.38-2.16,10,10,0,0,0,2.9-3.33A8.86,8.86,0,0,0,937.2,37a7.93,7.93,0,0,0-2.11-5.49,7.36,7.36,0,0,0-5.7-2.32,6.6,6.6,0,0,0-5.22,2.22,8.41,8.41,0,0,0-1.95,5.8h-21a22.43,22.43,0,0,1,2.16-9.86,24,24,0,0,1,6-7.81,28,28,0,0,1,9.07-5.17,33.8,33.8,0,0,1,11.34-1.85,30.16,30.16,0,0,1,11.34,2.06A27.79,27.79,0,0,1,950,20.07a24.73,24.73,0,0,1,5.7,8,23.07,23.07,0,0,1,2,9.39Q957.66,53.31,938.57,60Z"/><path d="M261.81,0V113.39H143.33V0m63.28,37.64V94.52h21.61v-57h15.46V19H191V37.64ZM162.24,94.52h21.27V18.93H162.24Z"/></svg>