<svg id="Layer_1" data-name="Layer 1" xmlns="http://www.w3.org/2000/svg" viewBox="0 0 31.18 28.35"><title>icons</title><path d="M15.59,4.37c3.2,0,3.6,0,4.9.1,3.3.1,4.8,1.7,4.9,4.9.1,1.3.1,1.6.1,4.8s0,3.6-.1,4.8c-.1,3.2-1.7,4.8-4.9,4.9-1.3.1-1.6.1-4.9.1s-3.6,0-4.8-.1c-3.3-.1-4.8-1.7-4.9-4.9-.1-1.3-.1-1.6-.1-4.8s0-3.6.1-4.8c.1-3.2,1.7-4.8,4.9-4.9C12,4.37,12.39,4.37,15.59,4.37Zm0-2.2c-3.3,0-3.7,0-4.9.1-4.4.2-6.8,2.6-7,7-.1,1.2-.1,1.6-.1,4.9s0,3.7.1,4.9c.2,4.4,2.6,6.8,7,7,1.2.1,1.6.1,4.9.1s3.7,0,4.9-.1c4.4-.2,6.8-2.6,7-7,.1-1.2.1-1.6.1-4.9s0-3.7-.1-4.9c-.2-4.4-2.6-6.8-7-7C19.29,2.17,18.89,2.17,15.59,2.17Zm0,5.8a6.2,6.2,0,1,0,6.2,6.2A6.23,6.23,0,0,0,15.59,8Zm0,10.2a4,4,0,1,1,4-4A4,4,0,0,1,15.59,18.17ZM22,6.37a1.4,1.4,0,1,0,1.4,1.4A1.37,1.37,0,0,0,22,6.37Z"/></svg>