<svg id="Layer_1" data-name="Layer 1" xmlns="http://www.w3.org/2000/svg" viewBox="0 0 28.35 28.35"><title>icons</title><path d="M6.87,2.17h1.4l1,3.7.9-3.7h1.5L10,7.67v3.8H8.57V7.67Zm6.5,2.4a1.76,1.76,0,0,0-1.9,1.8v3.3c0,1.2.6,1.8,1.9,1.8a1.73,1.73,0,0,0,1.8-1.8V6.37A1.63,1.63,0,0,0,13.37,4.57Zm.6,5.1c0,.4-.2.6-.5.6a.58.58,0,0,1-.6-.6V6.47c0-.4.2-.7.5-.7s.6.3.6.7Zm4.7-5.1v5.2c-.2.2-.5.5-.7.5s-.3-.2-.3-.5V4.57h-1.3v5.7c0,.7.2,1.2.9,1.2a2,2,0,0,0,1.5-.9v.8h1.3V4.57Zm2.2,13.9c-.4,0-.5.3-.5.8V20h1.1v-.8C21.37,18.77,21.27,18.47,20.87,18.47Zm-4.7,0c-.1.1-.2.1-.2.2v4.1c.1.1.2.2.3.2s.5.1.6-.1.1-.2.1-.4v-3.4a.75.75,0,0,0-.1-.5A.62.62,0,0,0,16.17,18.47Zm4.8-5.2c-2.6-.1-11-.1-13.6,0-2.8.2-3.2,1.9-3.2,6.4s.3,6.2,3.2,6.4c2.6.2,11.1.2,13.7,0,2.8-.2,3.1-1.9,3.2-6.4C24.17,15.17,23.77,13.47,21,13.27ZM8.67,24H7.27v-7.5H5.87v-1.3h4.2v1.3H8.67V24Zm4.9,0h-1.2v-.7a4.35,4.35,0,0,1-.7.6c-.7.4-1.5.4-1.5-1v-5.4h1.2v5c0,.3.1.4.3.4a1.16,1.16,0,0,0,.7-.5v-4.9h1.2V24Zm4.6-1.3c0,.8-.3,1.4-1.1,1.4a1.38,1.38,0,0,1-1.1-.6V24h-1.2v-8.8H16V18a1.52,1.52,0,0,1,1.1-.6c.9,0,1.2.7,1.2,1.6l-.1,3.7Zm4.5-1.8h-2.3v1.2c0,.5,0,.9.5.9s.5-.3.5-.9v-.5h1.2v.6c0,1.3-.5,2-1.8,2s-1.7-.8-1.7-2v-2.9a1.76,1.76,0,0,1,1.8-1.9c1.2,0,1.7.7,1.7,1.9l.1,1.6Z"/></svg>